<?xml version="1.0" encoding="UTF-8"?>
<svg width="95px" height="16px" viewBox="0 0 95 16" version="1.1" xmlns="http://www.w3.org/2000/svg" xmlns:xlink="http://www.w3.org/1999/xlink">
    <title>logo</title>
    <g id="symbols" stroke="none" stroke-width="1" fill="none" fill-rule="evenodd">
        <g id="Nav-/-Logged-out" transform="translate(-16.000000, -32.000000)" fill="#FFFFFF">
            <g id="Group-15" transform="translate(16.000000, 32.000000)">
                <path d="M33.6636688,8.36268474 C34.3203877,8.36268474 34.909165,8.26721055 35.4323589,8.07771107 C35.9546685,7.88813533 36.39732,7.62397991 36.7617135,7.28852388 C37.1247806,6.9520765 37.4034735,6.55652969 37.5974237,6.0994432 C37.7922581,5.64235671 37.8887174,5.14355747 37.8887174,4.60312171 C37.8887174,3.41304969 37.5360405,2.49445379 36.830613,1.85320583 C36.1242276,1.20898384 35.0679654,0.887635417 33.6636688,0.887635417 L30.8779929,0.887635417 L30.8779929,8.36268474 L33.6636688,8.36268474 Z M33.6636688,0 C35.4216003,0 36.7467546,0.398978394 37.6404582,1.19487623 C38.5332775,1.99130787 38.9806452,3.12799976 38.9806452,4.60312171 C38.9806452,5.28265085 38.8555208,5.90750348 38.6086617,6.47752708 C38.3618763,7.04762694 38.0091257,7.53864795 37.5505573,7.95165769 C37.0910309,8.36367609 36.5340873,8.68510077 35.8773685,8.91623676 C35.2206496,9.14653392 34.4824304,9.26137747 33.6636688,9.26137747 L30.8779929,9.26137747 L30.8779929,15.5076923 L29.7870968,15.5076923 L29.7870968,0 L33.6636688,0 Z" id="Fill-1"></path>
                <path d="M53.6171868,9.87407748 L50.5053144,2.03874996 C50.3973291,1.78328662 50.2926525,1.47505295 50.1922623,1.11778556 C50.1487222,1.29325456 50.1023998,1.46003018 50.0517159,1.61559591 C50.0005808,1.77314435 49.9465881,1.91811026 49.8896627,2.04942604 L46.776888,9.87407748 L53.6171868,9.87407748 Z M57,15.5076923 L56.1463444,15.5076923 C56.0459542,15.5076923 55.9636868,15.4815359 55.8977375,15.4267829 C55.8327659,15.3720298 55.782082,15.29928 55.7462122,15.2115836 L53.9522721,10.7083369 L46.4418026,10.7083369 L44.6488402,15.2115836 C44.6196631,15.2930268 44.568528,15.3618113 44.4963372,15.4190046 C44.4251241,15.4781806 44.3385704,15.5076923 44.2367513,15.5076923 L43.3935484,15.5076923 L49.6516589,0 L50.7433935,0 L57,15.5076923 Z" id="Fill-3"></path>
                <path d="M67.4224625,7.66126975 C68.1068242,7.66126975 68.7206285,7.57883556 69.2638753,7.41350965 C69.8056014,7.24925135 70.2647571,7.01460752 70.6398217,6.70782424 C71.014354,6.39997337 71.3009177,6.03256551 71.4976878,5.59965261 C71.6943819,5.16872239 71.7924629,4.68349694 71.7924629,4.14306119 C71.7924629,3.03931247 71.4343534,2.22160504 70.717146,1.68780367 C69.9994063,1.15415481 68.9526013,0.888016704 67.5742219,0.888016704 L64.7449287,0.888016704 L64.7449287,7.66126975 L67.4224625,7.66126975 Z M74.283871,15.5076923 L73.3226017,15.5076923 C73.1979096,15.5076923 73.0949626,15.4877891 73.0108715,15.4475253 C72.9277688,15.4068801 72.8494561,15.3322242 72.7760095,15.2226424 L67.8158508,8.93270835 C67.7569262,8.85279066 67.6969371,8.78248139 67.6346671,8.7233057 C67.5732335,8.66611269 67.5046528,8.61913817 67.4277847,8.58756763 C67.3504605,8.55363312 67.2596025,8.53136597 67.1537664,8.51634328 C67.0488426,8.50177813 66.9198167,8.49308479 66.7666127,8.49308479 L64.7449287,8.49308479 L64.7449287,15.5076923 L63.6193548,15.5076923 L63.6193548,0 L67.5742219,0 C69.3523002,0 70.6842242,0.345140713 71.5696899,1.03587968 C72.4536349,1.72761 72.8962917,2.74023119 72.8962917,4.07717485 C72.8962917,4.66900805 72.7943331,5.20944381 72.590416,5.69954972 C72.3869551,6.18813048 72.0930924,6.61761181 71.7108048,6.98700236 C71.327985,7.35631665 70.8660161,7.65791442 70.3227693,7.89149065 C69.7809671,8.12468559 69.1695959,8.28269079 68.4934456,8.36268474 C68.6683947,8.47219028 68.8244878,8.61814683 68.9622573,8.79994432 L74.283871,15.5076923 Z" id="Fill-5"></path>
                <path d="M93.369876,7.95104153 C93.369876,6.87467731 93.2249121,5.90504551 92.9364554,5.046932 C92.6466012,4.18843866 92.2389225,3.46022725 91.7101831,2.86434886 C91.181885,2.2670271 90.5484128,1.81069851 89.8074128,1.49293215 C89.0672954,1.17714091 88.2505405,1.01875151 87.3561921,1.01875151 C86.4669921,1.01875151 85.6539883,1.17714091 84.9143857,1.49293215 C84.1742683,1.81069851 83.5380012,2.2670271 83.0059521,2.86434886 C82.4744179,3.46022725 82.0620321,4.18843866 81.7693831,5.046932 C81.4767341,5.90504551 81.3308876,6.87467731 81.3308876,7.95104153 C81.3308876,9.03659766 81.4767341,10.0056977 81.7693831,10.8609245 C82.0620321,11.7156195 82.4744179,12.4418558 83.0059521,13.0391776 C83.5380012,13.635056 84.1742683,14.090397 84.9143857,14.4038333 C85.6539883,14.716282 86.4669921,14.8732281 87.3561921,14.8732281 C88.2505405,14.8732281 89.0672954,14.716282 89.8074128,14.4038333 C90.5484128,14.090397 91.181885,13.635056 91.7101831,13.0391776 C92.2389225,12.4418558 92.6466012,11.7156195 92.9364554,10.8609245 C93.2249121,10.0056977 93.369876,9.03659766 93.369876,7.95104153 M94.4905328,7.95104153 C94.4905328,9.14568503 94.3170321,10.2273669 93.9724579,11.1994296 C93.6265599,12.170049 93.1403315,13.0005868 92.5138463,13.6886881 C91.8869199,14.375346 91.1342257,14.906957 90.2566463,15.281698 C89.3791405,15.6559832 88.412347,15.8452148 87.3561921,15.8452148 C86.2991547,15.8452148 85.3337586,15.6559832 84.4594889,15.281698 C83.5852192,14.906957 82.834805,14.375346 82.2079521,13.6886881 C81.5800695,13.0005868 81.0947237,12.170049 80.749267,11.1994296 C80.4037366,10.2273669 80.2312657,9.14568503 80.2312657,7.95104153 C80.2312657,6.76505817 80.4037366,5.68535143 80.749267,4.71374451 C81.0947237,3.74221356 81.5800695,2.91213156 82.2079521,2.22448607 C82.834805,1.53638478 83.5852192,1.00378618 84.4594889,0.624715142 C85.3337586,0.247087464 86.2991547,0.0568682517 87.3561921,0.0568682517 C88.412347,0.0568682517 89.3791405,0.246099904 90.2566463,0.620385072 C91.1342257,0.995126036 91.8869199,1.52772464 92.5138463,2.21871264 C93.1403315,2.911144 93.6265599,3.74221356 93.9724579,4.71374451 C94.3170321,5.68535143 94.4905328,6.76505817 94.4905328,7.95104153" id="Fill-7"></path>
                <path d="M8.64193548,0 C4.28264802,0 0.735483871,3.5625716 0.735483871,7.9409643 C0.735483871,9.86471324 1.43359961,11.7224632 2.70175319,13.1723789 L2.80564535,13.2923077 L3.3882324,12.707254 L3.29780211,12.6028319 C2.17620796,11.3072958 1.55833104,9.65159143 1.55833104,7.9409643 C1.55833104,4.01853004 4.73609241,0.826897327 8.64193548,0.826897327 C12.5477786,0.826897327 15.7254639,4.01853004 15.7254639,7.9409643 C15.7254639,9.65159143 15.107663,11.3072958 13.9860689,12.6028319 L13.8956386,12.707254 L14.4782256,13.2923077 L14.5821178,13.1723789 C15.8502714,11.7224632 16.5483871,9.86471324 16.5483871,7.9409643 C16.5483871,3.5625716 13.0012229,0 8.64193548,0" id="Fill-10"></path>
                <path d="M13.6543599,13.0065496 C12.3405217,14.2660241 10.6252979,14.9583602 8.80801151,14.9583602 C6.99072516,14.9583602 5.27693459,14.2660241 3.96264377,13.0065496 L8.80801151,8.14058036 L13.6543599,13.0065496 Z M8.80801151,7.03326675 L7.54342443e-06,15.8769307 L1.1546795,15.8769307 L3.38579811,13.6117093 C4.84635593,15.0180431 6.76532764,15.7902845 8.80801151,15.7902845 C10.8540145,15.7902845 12.7739668,15.020391 14.2302249,13.6184502 L16.4613435,15.8769307 L17.6160155,15.8769307 L8.80801151,7.03326675 Z" id="Fill-12"></path>
            </g>
        </g>
    </g>
</svg>